<?xml version="1.0" ?><!DOCTYPE svg  PUBLIC '-//W3C//DTD SVG 1.1//EN'  'http://www.w3.org/Graphics/SVG/1.1/DTD/svg11.dtd'><svg height="100%" style="fill-rule:evenodd;clip-rule:evenodd;stroke-linejoin:round;stroke-miterlimit:2;" version="1.1" viewBox="0 0 32 32" width="100%" xml:space="preserve" xmlns="http://www.w3.org/2000/svg" xmlns:serif="http://www.serif.com/" xmlns:xlink="http://www.w3.org/1999/xlink"><path d="M26.5,11c-0,-0.663 -0.263,-1.299 -0.732,-1.768c-0.469,-0.469 -1.105,-0.732 -1.768,-0.732c-3.832,0 -12.168,0 -16,0c-0.663,-0 -1.299,0.263 -1.768,0.732c-0.469,0.469 -0.732,1.105 -0.732,1.768c0,2.661 0,7.339 0,10c0,0.663 0.263,1.299 0.732,1.768c0.469,0.469 1.105,0.732 1.768,0.732c3.832,0 12.168,0 16,0c0.663,0 1.299,-0.263 1.768,-0.732c0.469,-0.469 0.732,-1.105 0.732,-1.768l-0,-10Zm-1,-0c-0,-0.398 -0.158,-0.779 -0.439,-1.061c-0.282,-0.281 -0.663,-0.439 -1.061,-0.439c-3.832,0 -12.168,0 -16,-0c-0.398,-0 -0.779,0.158 -1.061,0.439c-0.281,0.282 -0.439,0.663 -0.439,1.061c0,2.661 0,7.339 -0,10c0,0.398 0.158,0.779 0.439,1.061c0.282,0.281 0.663,0.439 1.061,0.439c3.832,0 12.168,0 16,0c0.398,0 0.779,-0.158 1.061,-0.439c0.281,-0.282 0.439,-0.663 0.439,-1.061l-0,-10Z"/><path d="M15.947,17.415l3.753,-2.815c0.152,-0.114 0.354,-0.132 0.524,-0.047l6,3c0.246,0.123 0.347,0.424 0.223,0.671c-0.123,0.246 -0.424,0.347 -0.671,0.223l-5.723,-2.862l-3.753,2.815c-0.151,0.114 -0.354,0.132 -0.524,0.047l-3.814,-1.907l-5.804,1.934c-0.262,0.088 -0.545,-0.054 -0.632,-0.316c-0.088,-0.262 0.054,-0.545 0.316,-0.632l6,-2c0.126,-0.042 0.263,-0.033 0.382,0.027l3.723,1.862Z"/><path d="M12,10.571c-1.034,0 -1.874,0.84 -1.874,1.874c0,1.034 0.84,1.874 1.874,1.874c1.034,0 1.874,-0.84 1.874,-1.874c-0,-1.034 -0.84,-1.874 -1.874,-1.874Zm0,1c0.482,0 0.874,0.392 0.874,0.874c-0,0.482 -0.392,0.874 -0.874,0.874c-0.482,0 -0.874,-0.392 -0.874,-0.874c0,-0.482 0.392,-0.874 0.874,-0.874Z"/></svg>